<!-- Generated by IcoMoon.io -->
<svg version="1.1" xmlns="http://www.w3.org/2000/svg" width="32" height="32" viewBox="0 0 32 32">
<title>Arrow-right</title>
<path fill="#3a4562" opacity="0.498" d="M13.339 2.69c0.681-0.681 1.622-1.102 2.661-1.102s1.98 0.421 2.661 1.102l10.649 10.649c0.681 0.681 1.102 1.622 1.102 2.661s-0.421 1.98-1.102 2.661l-10.649 10.649c-0.675 0.645-1.591 1.041-2.6 1.041-2.080 0-3.765-1.686-3.765-3.765 0-1.009 0.397-1.926 1.044-2.602l-0.001 0.001 7.986-7.986-7.986-7.986c-0.681-0.681-1.103-1.623-1.103-2.662s0.421-1.981 1.103-2.662v0z"></path>
<path fill="#7d859c" opacity="0.498" d="M32 0h-25.412v32h25.412z"></path>
</svg>
