<!-- Generated by IcoMoon.io -->
<svg version="1.1" xmlns="http://www.w3.org/2000/svg" width="18" height="32" viewBox="0 0 18 32">
<title>Arrow-back</title>
<path fill="#384564" d="M17.173 0.713c0.373 0.416 0.601 0.969 0.601 1.575 0 0.645-0.258 1.229-0.676 1.655l0-0-11.104 11.52c-0.133 0.138-0.215 0.326-0.215 0.533s0.082 0.395 0.215 0.534l-0-0 11.111 11.52c0.417 0.426 0.674 1.009 0.674 1.653 0 0.608-0.229 1.162-0.606 1.581l0.002-0.002c-0.384 0.441-0.947 0.719-1.574 0.719-0.591 0-1.125-0.246-1.504-0.642l-0.001-0.001-13.403-13.639c-0.43-0.443-0.695-1.048-0.695-1.715 0-0.63 0.237-1.205 0.626-1.641l-0.002 0.002 13.474-13.73c0.381-0.393 0.914-0.636 1.503-0.636 0.626 0 1.188 0.275 1.572 0.71l0.002 0.002z"></path>
</svg>
