<!-- Generated by IcoMoon.io -->
<svg version="1.1" xmlns="http://www.w3.org/2000/svg" width="30" height="32" viewBox="0 0 30 32">
<title>Share</title>
<path fill="#70778b" d="M21.664 23.856l-11.408-6.667c0.084-0.335 0.136-0.722 0.144-1.119l0-0.005c-0.008-0.403-0.060-0.79-0.152-1.161l0.008 0.036 11.28-6.602c0.85 0.804 1.999 1.298 3.264 1.301h0c2.656 0 4.8-2.152 4.8-4.819 0-0.005 0-0.010 0-0.016 0-2.652-2.149-4.801-4.8-4.803h-0c-2.656 0-4.8 2.152-4.8 4.819 0 0.386 0.064 0.755 0.144 1.125l-11.28 6.6c-0.85-0.804-1.999-1.298-3.264-1.301h-0c-2.656 0-4.8 2.152-4.8 4.819-0 0.005-0 0.010-0 0.016 0 2.652 2.149 4.801 4.8 4.803h0c1.264 0 2.4-0.498 3.264-1.301l11.392 6.683c-0.080 0.336-0.128 0.69-0.128 1.043 0 0.001 0 0.003 0 0.005 0 2.584 2.090 4.679 4.671 4.688h0.001c2.582-0.009 4.672-2.104 4.672-4.688 0-0.001 0-0.002 0-0.003v0c0-0.001 0-0.002 0-0.003 0-2.584-2.090-4.679-4.671-4.688h-0.001c-1.216 0-2.304 0.483-3.136 1.238z"></path>
</svg>
