<!-- Generated by IcoMoon.io -->
<svg version="1.1" xmlns="http://www.w3.org/2000/svg" width="34" height="32" viewBox="0 0 34 32">
<title>Star-dark</title>
<path fill="" d="M11.909 8.16c1.298-2.951 3.771-8.16 5.008-8.16 1.797 0 5.735 10.108 5.735 10.108s3.644 0.32 6.59 0.644c1.564 0.172 4.356 0.436 4.532 1.298 0.037 0.187-0.187 0.949-0.596 1.481-1.73 2.258-6.219 7.095-6.219 7.095s0.247 2.311 0.466 4.841c0.142 1.636 0.521 4.949 0.384 5.541-0.149 0.651-0.42 0.828-0.699 0.932-0.732 0.267-2.43-0.77-4.412-1.717-2.702-1.298-5.737-2.681-5.737-2.681s-2.002 1.045-4.375 2.068c-2.535 1.092-5.102 2.892-6.176 2.258-0.668-0.396-0.172-3.484 0.085-6.236 0.24-2.592 0.448-4.962 0.448-4.962s-1.486-1.746-3.218-3.614c-1.87-2.018-4.153-4.196-3.657-4.996 0.373-0.604 2.073-0.928 4.93-1.28 3.036-0.379 6.066-0.645 6.066-0.645s0.331-0.811 0.844-1.973z"></path>
</svg>
